<?xml version="1.0" standalone="no"?>
<!DOCTYPE svg PUBLIC "-//W3C//DTD SVG 20010904//EN"
 "http://www.w3.org/TR/2001/REC-SVG-20010904/DTD/svg10.dtd">
<svg version="1.0" xmlns="http://www.w3.org/2000/svg"
 width="2000.000000pt" height="2000.000000pt" viewBox="0 0 2000.000000 2000.000000"
 preserveAspectRatio="xMidYMid meet">

<g transform="translate(0.000000,2000.000000) scale(0.100000,-0.100000)"
fill="#000000" stroke="none">
<path d="M9695 18454 c-699 -35 -1229 -113 -1831 -269 -1162 -301 -2281 -871
-3219 -1640 -444 -363 -907 -834 -1268 -1287 -1494 -1876 -2117 -4302 -1716
-6683 263 -1565 966 -3023 2039 -4225 175 -197 572 -588 757 -747 564 -485
1125 -859 1768 -1180 1015 -508 2043 -787 3220 -874 218 -17 900 -17 1115 -1
1184 89 2209 367 3225 875 642 321 1196 690 1768 1179 183 157 688 662 845
845 800 936 1365 1959 1706 3088 666 2202 411 4582 -702 6575 -283 507 -610
974 -1005 1433 -159 185 -550 582 -747 757 -919 820 -1979 1421 -3139 1780
-611 190 -1213 304 -1871 355 -185 14 -795 27 -945 19z m645 -744 c730 -35
1389 -154 2060 -372 1632 -532 3054 -1607 4016 -3038 696 -1034 1127 -2209
1263 -3445 35 -316 45 -501 45 -860 0 -359 -10 -544 -45 -860 -191 -1730 -957
-3329 -2190 -4575 -1964 -1983 -4832 -2750 -7529 -2013 -1773 484 -3334 1608
-4366 3143 -761 1131 -1191 2389 -1295 3790 -16 213 -16 817 0 1030 94 1266
448 2398 1079 3450 1023 1706 2676 2963 4582 3483 777 212 1593 304 2380 267z"/>
<path d="M9615 17489 c-2221 -114 -4272 -1205 -5612 -2987 -1258 -1673 -1754
-3786 -1378 -5867 99 -543 283 -1141 512 -1660 915 -2070 2725 -3627 4903
-4214 656 -177 1254 -255 1955 -255 482 0 808 26 1250 99 2478 413 4598 2062
5618 4370 301 683 506 1439 586 2170 38 337 45 478 45 855 0 470 -25 796 -95
1220 -389 2371 -1898 4415 -4057 5494 -1140 570 -2441 841 -3727 775z m800
-1089 c1410 -95 2713 -630 3785 -1554 133 -115 402 -378 534 -521 908 -992
1486 -2256 1635 -3580 31 -270 41 -452 41 -745 0 -719 -103 -1359 -325 -2025
-396 -1189 -1120 -2219 -2117 -3012 -356 -283 -735 -520 -1173 -734 -748 -364
-1535 -572 -2380 -629 -193 -13 -637 -13 -830 0 -845 57 -1632 265 -2380 629
-649 316 -1171 684 -1684 1186 -746 731 -1281 1582 -1606 2560 -222 666 -325
1306 -325 2025 0 719 103 1359 325 2025 324 973 856 1824 1596 2550 520 510
1040 877 1694 1196 739 359 1540 573 2360 628 176 12 677 12 850 1z"/>
<path d="M5972 14018 l-732 -733 1642 -1642 1643 -1643 -1643 -1643 -1642
-1642 732 -733 733 -732 1642 1642 1643 1643 1643 -1643 1642 -1642 733 732
732 733 -1642 1642 -1643 1643 1643 1643 1642 1642 -732 733 -733 732 -1642
-1642 -1643 -1643 -1643 1643 -1642 1642 -733 -732z"/>
</g>
</svg>
